<?xml version="1.0" encoding="UTF-8"?>
<svg id="Layer_1" xmlns="http://www.w3.org/2000/svg" width="1440" height="918.37" viewBox="0 0 1440 918.37">
  <g id="Rectangle_45">
    <g id="Rectangle_45-2">
      <rect x="903.05" y="90.37" width="76.93" height="122.8" fill="#bee20c"/>
      <rect x="903.05" y="90.37" width="76.93" height="122.8" fill="#bee20c"/>
    </g>
  </g>
  <g id="Rectangle_1" isolation="isolate">
    <g id="Rectangle_1-2">
      <rect x="981.81" y="34.19" width="377.71" height="211.93" fill="#fff"/>
    </g>
  </g>
  <g id="Rectangle_2" isolation="isolate">
    <g id="Rectangle_2-2">
      <rect x="979.99" y="240.23" width="378.59" height="174.6" fill="#fff"/>
    </g>
  </g>
  <g id="Rectangle_3" isolation="isolate">
    <g id="Rectangle_3-2">
      <rect x="1076.1" y="414.46" width="282.16" height="185.47" fill="#fff"/>
    </g>
  </g>
  <g id="Rectangle_4" isolation="isolate">
    <g id="Rectangle_4-2">
      <rect x="1075.22" y="411.8" width="204.16" height="26.12" fill="#bee20c"/>
    </g>
  </g>
  <g id="Rectangle_5" isolation="isolate">
    <g id="Rectangle_5-2">
      <rect x="977.8" y="213.97" width="382.52" height="24.72" fill="#bee20c"/>
    </g>
  </g>
  <g id="Rectangle_6" isolation="isolate">
    <g id="Rectangle_6-2">
      <rect x="1170.61" y="227.52" width="22.56" height="194.78" fill="#bee20c"/>
    </g>
  </g>
  <g id="Rectangle_7" isolation="isolate">
    <g id="Rectangle_7-2">
      <rect x="902.18" y="90.31" width="79.23" height="537.33" fill="#bee20c"/>
    </g>
  </g>
  <g id="Rectangle_8">
    <g id="Rectangle_8-2">
      <rect x="976.54" y="416.97" width="100.52" height="205.75" fill="#bee20c"/>
    </g>
  </g>
  <g id="Rectangle_22" isolation="isolate">
    <g id="Rectangle_22-2">
      <rect x="1358.57" y="214.15" width="30.68" height="404" fill="#bee20c"/>
    </g>
  </g>
  <g id="Rectangle_9" isolation="isolate">
    <g id="Rectangle_9-2">
      <rect x="901.79" y="627.68" width="52.42" height="252.32" fill="#bee20c"/>
    </g>
  </g>
  <g id="Rectangle_38">
    <g id="Rectangle_38-2">
      <rect x="947.57" y="600.14" width="441.53" height="213.28" fill="#bee20c"/>
    </g>
  </g>
  <g id="Rectangle_10" isolation="isolate">
    <g id="Rectangle_10-2">
      <rect x="299.24" y="249.86" width="57.58" height="470.93" fill="#bee20c"/>
    </g>
  </g>
  <g id="Rectangle_40" isolation="isolate">
    <g id="Rectangle_40-2">
      <rect x="-2.3" y="877.86" width="1444.99" height="38.98" fill="#231f20"/>
    </g>
  </g>
  <g id="Rectangle_11" isolation="isolate">
    <g id="Rectangle_11-2">
      <rect x="348.52" y="624.66" width="605.49" height="23.64" fill="#bee20c"/>
    </g>
  </g>
  <g id="Rectangle_39" isolation="isolate">
    <g id="Rectangle_39-2">
      <rect x="951.49" y="745.68" width="437.74" height="132.57" fill="#f15a35"/>
      <rect x="951.49" y="745.68" width="437.74" height="132.57" fill="#f15a35"/>
    </g>
  </g>
  <g id="No_parking">
    <g isolation="isolate">
      <text transform="translate(1041.49 828.3)" fill="#fff" font-family="SFPro-Heavy, &apos;SF Pro&apos;" font-size="33.11" font-variation-settings="&apos;wdth&apos; 100, &apos;opsz&apos; 28, &apos;wght&apos; 860" font-weight="800" isolation="isolate"><tspan x="0" y="0">NO </tspan><tspan x="55.63" y="0" letter-spacing="-.07em">P</tspan><tspan x="74.38" y="0">ARKING</tspan></text>
    </g>
  </g>
  <g id="Rectangle_12" isolation="isolate">
    <g id="Rectangle_12-2">
      <rect x="356.17" y="251.03" width="550.38" height="23.08" fill="#bee20c"/>
    </g>
  </g>
  <g id="Rectangle_13" isolation="isolate">
    <g id="Rectangle_13-2">
      <rect x="603.02" y="270.37" width="27.2" height="364.79" fill="#bee20c"/>
    </g>
  </g>
  <g id="Rectangle_14" isolation="isolate">
    <g id="Rectangle_14-2">
      <rect x="354.67" y="36.3" width="547.52" height="214.36" fill="#fff"/>
    </g>
  </g>
  <g id="Rectangle_15" isolation="isolate">
    <g id="Rectangle_15-2">
      <rect x="356.97" y="274.47" width="246.44" height="350.04" fill="#fff"/>
    </g>
  </g>
  <g id="Rectangle_16" isolation="isolate">
    <g id="Rectangle_16-2">
      <rect x="629.66" y="274.13" width="271.76" height="349.24" fill="#fff"/>
    </g>
  </g>
  <g id="Rectangle_18" isolation="isolate">
    <g id="Rectangle_18-2">
      <rect x="299.71" y="71.13" width="53.1" height="177.82" fill="#fff"/>
    </g>
  </g>
  <g id="Rectangle_19" isolation="isolate">
    <g id="Rectangle_19-2">
      <rect x="341.92" y="71.84" width="24.43" height="177.75" fill="#fff"/>
    </g>
  </g>
  <g id="Rectangle_20" isolation="isolate">
    <g id="Rectangle_20-2">
      <rect x="356.43" y="650.55" width="544.81" height="227.13" fill="#fff"/>
    </g>
  </g>
  <g id="Rectangle_17" isolation="isolate">
    <g id="Rectangle_17-2">
      <rect x="65.4" y="70.07" width="234.28" height="646.75" fill="#fff"/>
    </g>
    <rect x="66.55" y="255.39" width="233.57" height="462.18" fill="#fff" stroke="#000" stroke-miterlimit="10" stroke-width="7"/>
  </g>
  <g id="Rectangle_21" isolation="isolate">
    <g id="Rectangle_21-2">
      <rect x="175.68" y="221.62" width="182.85" height="30.55" fill="#bee20c"/>
    </g>
  </g>
  <g id="_x32_15">
    <g isolation="isolate">
      <text transform="translate(433.38 335.3)" font-family="SFPro-Heavy, &apos;SF Pro&apos;" font-size="42.96" font-variation-settings="&apos;wdth&apos; 100, &apos;opsz&apos; 28, &apos;wght&apos; 860" font-weight="800" isolation="isolate"><tspan x="0" y="0">215</tspan></text>
    </g>
  </g>
  <g id="_x32_12">
    <g isolation="isolate">
      <text transform="translate(707.69 423.47)" font-family="SFPro-Heavy, &apos;SF Pro&apos;" font-size="42.96" font-variation-settings="&apos;wdth&apos; 100, &apos;opsz&apos; 28, &apos;wght&apos; 860" font-weight="800" isolation="isolate"><tspan x="0" y="0">212</tspan></text>
    </g>
  </g>
  <g id="_x32_10">
    <g isolation="isolate">
      <text transform="translate(706.99 507.9)" font-family="SFPro-Heavy, &apos;SF Pro&apos;" font-size="42.96" font-variation-settings="&apos;wdth&apos; 100, &apos;opsz&apos; 28, &apos;wght&apos; 860" font-weight="800" isolation="isolate"><tspan x="0" y="0">210</tspan></text>
    </g>
  </g>
  <g id="_x32_08">
    <g isolation="isolate">
      <text transform="translate(707.89 590.82)" font-family="SFPro-Heavy, &apos;SF Pro&apos;" font-size="42.96" font-variation-settings="&apos;wdth&apos; 100, &apos;opsz&apos; 28, &apos;wght&apos; 860" font-weight="800" isolation="isolate"><tspan x="0" y="0" letter-spacing="0em">2</tspan><tspan x="26.6" y="0">08</tspan></text>
    </g>
  </g>
  <g id="_x32_09">
    <g isolation="isolate">
      <text transform="translate(427.36 590.08)" font-family="SFPro-Heavy, &apos;SF Pro&apos;" font-size="42.96" font-variation-settings="&apos;wdth&apos; 100, &apos;opsz&apos; 28, &apos;wght&apos; 860" font-weight="800" isolation="isolate"><tspan x="0" y="0" letter-spacing="0em">2</tspan><tspan x="26.6" y="0">09</tspan></text>
    </g>
  </g>
  <g id="_x32_13">
    <g isolation="isolate">
      <text transform="translate(431.15 420.21)" font-family="SFPro-Heavy, &apos;SF Pro&apos;" font-size="42.96" font-variation-settings="&apos;wdth&apos; 100, &apos;opsz&apos; 28, &apos;wght&apos; 860" font-weight="800" isolation="isolate"><tspan x="0" y="0">213</tspan></text>
    </g>
  </g>
  <g id="_x32_14">
    <g isolation="isolate">
      <text transform="translate(711.65 334.74)" font-family="SFPro-Heavy, &apos;SF Pro&apos;" font-size="42.96" font-variation-settings="&apos;wdth&apos; 100, &apos;opsz&apos; 28, &apos;wght&apos; 860" font-weight="800" isolation="isolate"><tspan x="0" y="0">214</tspan></text>
    </g>
  </g>
  <g id="_x32_01">
    <g isolation="isolate">
      <text transform="translate(383.08 723.06) rotate(90)" font-family="SFPro-Heavy, &apos;SF Pro&apos;" font-size="42.96" font-variation-settings="&apos;wdth&apos; 100, &apos;opsz&apos; 28, &apos;wght&apos; 860" font-weight="800" isolation="isolate"><tspan x="0" y="0" letter-spacing="0em">2</tspan><tspan x="26.6" y="0" letter-spacing="0em">0</tspan><tspan x="55.8" y="0">1</tspan></text>
    </g>
  </g>
  <g id="_x31_01">
    <g isolation="isolate">
      <text transform="translate(1094.91 473.45) rotate(90)" font-family="SFPro-Heavy, &apos;SF Pro&apos;" font-size="42.96" font-variation-settings="&apos;wdth&apos; 100, &apos;opsz&apos; 28, &apos;wght&apos; 860" font-weight="800" isolation="isolate"><tspan x="0" y="0">1</tspan><tspan x="21.46" y="0" letter-spacing="0em">0</tspan><tspan x="50.66" y="0">1</tspan></text>
    </g>
  </g>
  <g id="_x31_02">
    <g isolation="isolate">
      <text transform="translate(1167.68 471.96) rotate(90)" font-family="SFPro-Heavy, &apos;SF Pro&apos;" font-size="42.96" font-variation-settings="&apos;wdth&apos; 100, &apos;opsz&apos; 28, &apos;wght&apos; 860" font-weight="800" isolation="isolate"><tspan x="0" y="0">1</tspan><tspan x="21.46" y="0" letter-spacing="0em">0</tspan><tspan x="50.66" y="0" letter-spacing="0em">2</tspan></text>
    </g>
  </g>
  <g id="_x31_03">
    <g isolation="isolate">
      <text transform="translate(1237.9 471.88) rotate(90)" font-family="SFPro-Heavy, &apos;SF Pro&apos;" font-size="42.96" font-variation-settings="&apos;wdth&apos; 100, &apos;opsz&apos; 28, &apos;wght&apos; 860" font-weight="800" isolation="isolate"><tspan x="0" y="0">103</tspan></text>
    </g>
  </g>
  <g id="_x31_04">
    <g isolation="isolate">
      <text transform="translate(1302.6 470.36) rotate(90)" font-family="SFPro-Heavy, &apos;SF Pro&apos;" font-size="42.96" font-variation-settings="&apos;wdth&apos; 100, &apos;opsz&apos; 28, &apos;wght&apos; 860" font-weight="800" isolation="isolate"><tspan x="0" y="0">104</tspan></text>
    </g>
  </g>
  <g id="_x31_15">
    <g isolation="isolate">
      <text transform="translate(1308.4 82.19) rotate(90)" font-family="SFPro-Heavy, &apos;SF Pro&apos;" font-size="42.96" font-variation-settings="&apos;wdth&apos; 100, &apos;opsz&apos; 28, &apos;wght&apos; 860" font-weight="800" isolation="isolate"><tspan x="0" y="0">115</tspan></text>
    </g>
  </g>
  <g id="_x31_14">
    <g isolation="isolate">
      <text transform="translate(1235.38 83.62) rotate(90)" font-family="SFPro-Heavy, &apos;SF Pro&apos;" font-size="42.96" font-variation-settings="&apos;wdth&apos; 100, &apos;opsz&apos; 28, &apos;wght&apos; 860" font-weight="800" isolation="isolate"><tspan x="0" y="0">114</tspan></text>
    </g>
  </g>
  <g id="_x31_13">
    <g isolation="isolate">
      <text transform="translate(1162.04 82.77) rotate(90)" font-family="SFPro-Heavy, &apos;SF Pro&apos;" font-size="42.96" font-variation-settings="&apos;wdth&apos; 100, &apos;opsz&apos; 28, &apos;wght&apos; 860" font-weight="800" isolation="isolate"><tspan x="0" y="0">113</tspan></text>
    </g>
  </g>
  <g id="_x31_12">
    <g isolation="isolate">
      <text transform="translate(1087.51 82.05) rotate(90)" font-family="SFPro-Heavy, &apos;SF Pro&apos;" font-size="42.96" font-variation-settings="&apos;wdth&apos; 100, &apos;opsz&apos; 28, &apos;wght&apos; 860" font-weight="800" isolation="isolate"><tspan x="0" y="0">112</tspan></text>
    </g>
  </g>
  <g id="_x32_22">
    <g isolation="isolate">
      <text transform="translate(845.15 99.72) rotate(90)" font-family="SFPro-Heavy, &apos;SF Pro&apos;" font-size="42.96" font-variation-settings="&apos;wdth&apos; 100, &apos;opsz&apos; 28, &apos;wght&apos; 860" font-weight="800" isolation="isolate"><tspan x="0" y="0">222</tspan></text>
    </g>
  </g>
  <g id="_x32_21">
    <g isolation="isolate">
      <text transform="translate(768.41 99.11) rotate(90)" font-family="SFPro-Heavy, &apos;SF Pro&apos;" font-size="42.96" font-variation-settings="&apos;wdth&apos; 100, &apos;opsz&apos; 28, &apos;wght&apos; 860" font-weight="800" isolation="isolate"><tspan x="0" y="0">221</tspan></text>
    </g>
  </g>
  <g id="_x32_20">
    <g isolation="isolate">
      <text transform="translate(692.9 99.67) rotate(90)" font-family="SFPro-Heavy, &apos;SF Pro&apos;" font-size="42.96" font-variation-settings="&apos;wdth&apos; 100, &apos;opsz&apos; 28, &apos;wght&apos; 860" font-weight="800" isolation="isolate"><tspan x="0" y="0">2</tspan><tspan x="26.77" y="0" letter-spacing="0em">2</tspan><tspan x="53.36" y="0">0</tspan></text>
    </g>
  </g>
  <g id="_x33_09">
    <g isolation="isolate">
      <text transform="translate(289.46 99.13) rotate(90)" font-family="SFPro-Heavy, &apos;SF Pro&apos;" font-size="42.96" font-variation-settings="&apos;wdth&apos; 100, &apos;opsz&apos; 28, &apos;wght&apos; 860" font-weight="800" isolation="isolate"><tspan x="0" y="0" letter-spacing="0em">3</tspan><tspan x="27.75" y="0">09</tspan></text>
    </g>
  </g>
  <g id="_x33_06_x0D__x26_">
    <g isolation="isolate">
      <text transform="translate(138.72 302.11)" font-family="SFPro-Heavy, &apos;SF Pro&apos;" font-size="42.96" font-variation-settings="&apos;wdth&apos; 100, &apos;opsz&apos; 28, &apos;wght&apos; 860" font-weight="800" isolation="isolate"><tspan x="0" y="0" letter-spacing="0em">3</tspan><tspan x="27.75" y="0">06</tspan></text>
      <text transform="translate(166.04 344.11)" font-family="SFPro-Heavy, &apos;SF Pro&apos;" font-size="42.96" font-variation-settings="&apos;wdth&apos; 100, &apos;opsz&apos; 28, &apos;wght&apos; 860" font-weight="800" isolation="isolate"><tspan x="0" y="0">&amp;</tspan></text>
    </g>
  </g>
  <g id="_x33_05">
    <g isolation="isolate">
      <text transform="translate(139.01 385.26)" font-family="SFPro-Heavy, &apos;SF Pro&apos;" font-size="42.96" font-variation-settings="&apos;wdth&apos; 100, &apos;opsz&apos; 28, &apos;wght&apos; 860" font-weight="800" isolation="isolate"><tspan x="0" y="0" letter-spacing="0em">3</tspan><tspan x="27.75" y="0" letter-spacing="0em">0</tspan><tspan x="56.74" y="0">5</tspan></text>
    </g>
  </g>
  <g id="_x33_04">
    <g isolation="isolate">
      <text transform="translate(137.83 452.08)" font-family="SFPro-Heavy, &apos;SF Pro&apos;" font-size="42.96" font-variation-settings="&apos;wdth&apos; 100, &apos;opsz&apos; 28, &apos;wght&apos; 860" font-weight="800" isolation="isolate"><tspan x="0" y="0" letter-spacing="0em">3</tspan><tspan x="27.75" y="0">04</tspan></text>
    </g>
  </g>
  <g id="_x33_03">
    <g isolation="isolate">
      <text transform="translate(137.31 530.87)" font-family="SFPro-Heavy, &apos;SF Pro&apos;" font-size="42.96" font-variation-settings="&apos;wdth&apos; 100, &apos;opsz&apos; 28, &apos;wght&apos; 860" font-weight="800" isolation="isolate"><tspan x="0" y="0" letter-spacing="0em">3</tspan><tspan x="27.75" y="0">03</tspan></text>
    </g>
  </g>
  <g id="_x33_02">
    <g isolation="isolate">
      <text transform="translate(132.82 614.01)" font-family="SFPro-Heavy, &apos;SF Pro&apos;" font-size="42.96" font-variation-settings="&apos;wdth&apos; 100, &apos;opsz&apos; 28, &apos;wght&apos; 860" font-weight="800" isolation="isolate"><tspan x="0" y="0" letter-spacing="0em">3</tspan><tspan x="27.75" y="0" letter-spacing="0em">0</tspan><tspan x="56.95" y="0" letter-spacing="0em">2</tspan></text>
    </g>
  </g>
  <g id="_x33_01">
    <g isolation="isolate">
      <text transform="translate(132.13 691.16)" font-family="SFPro-Heavy, &apos;SF Pro&apos;" font-size="42.96" font-variation-settings="&apos;wdth&apos; 100, &apos;opsz&apos; 28, &apos;wght&apos; 860" font-weight="800" isolation="isolate"><tspan x="0" y="0" letter-spacing="0em">3</tspan><tspan x="27.75" y="0" letter-spacing="0em">0</tspan><tspan x="56.95" y="0">1</tspan></text>
    </g>
  </g>
  <g id="_x33_08">
    <g isolation="isolate">
      <text transform="translate(200.6 101.29) rotate(90)" font-family="SFPro-Heavy, &apos;SF Pro&apos;" font-size="42.96" font-variation-settings="&apos;wdth&apos; 100, &apos;opsz&apos; 28, &apos;wght&apos; 860" font-weight="800" isolation="isolate"><tspan x="0" y="0" letter-spacing="0em">3</tspan><tspan x="27.75" y="0">08</tspan></text>
    </g>
  </g>
  <g id="_x33_07">
    <g isolation="isolate">
      <text transform="translate(102.1 103.06) rotate(90)" font-family="SFPro-Heavy, &apos;SF Pro&apos;" font-size="42.96" font-variation-settings="&apos;wdth&apos; 100, &apos;opsz&apos; 28, &apos;wght&apos; 860" font-weight="800" isolation="isolate"><tspan x="0" y="0" letter-spacing="0em">3</tspan><tspan x="27.75" y="0" letter-spacing="-.02em">0</tspan><tspan x="56.38" y="0">7</tspan></text>
    </g>
  </g>
  <g id="_x32_19">
    <g isolation="isolate">
      <text transform="translate(613.08 98.44) rotate(90)" font-family="SFPro-Heavy, &apos;SF Pro&apos;" font-size="42.96" font-variation-settings="&apos;wdth&apos; 100, &apos;opsz&apos; 28, &apos;wght&apos; 860" font-weight="800" isolation="isolate"><tspan x="0" y="0">2</tspan><tspan x="26.77" y="0" letter-spacing="0em">1</tspan><tspan x="48.06" y="0" letter-spacing="0em">9</tspan></text>
    </g>
  </g>
  <g id="_x32_18">
    <g isolation="isolate">
      <text transform="translate(536.83 98.98) rotate(90)" font-family="SFPro-Heavy, &apos;SF Pro&apos;" font-size="42.96" font-variation-settings="&apos;wdth&apos; 100, &apos;opsz&apos; 28, &apos;wght&apos; 860" font-weight="800" isolation="isolate"><tspan x="0" y="0">218</tspan></text>
    </g>
  </g>
  <g id="_x32_17">
    <g isolation="isolate">
      <text transform="translate(456.52 97.27) rotate(90)" font-family="SFPro-Heavy, &apos;SF Pro&apos;" font-size="42.96" font-variation-settings="&apos;wdth&apos; 100, &apos;opsz&apos; 28, &apos;wght&apos; 860" font-weight="800" isolation="isolate"><tspan x="0" y="0">217</tspan></text>
    </g>
  </g>
  <g id="_x32_16">
    <g isolation="isolate">
      <text transform="translate(379.83 98.57) rotate(90)" font-family="SFPro-Heavy, &apos;SF Pro&apos;" font-size="42.96" font-variation-settings="&apos;wdth&apos; 100, &apos;opsz&apos; 28, &apos;wght&apos; 860" font-weight="800" isolation="isolate"><tspan x="0" y="0">216</tspan></text>
    </g>
  </g>
  <g id="_x31_11">
    <g isolation="isolate">
      <text transform="translate(1007.74 82.27) rotate(90)" font-family="SFPro-Heavy, &apos;SF Pro&apos;" font-size="42.96" font-variation-settings="&apos;wdth&apos; 100, &apos;opsz&apos; 28, &apos;wght&apos; 860" font-weight="800" isolation="isolate"><tspan x="0" y="0">111</tspan></text>
    </g>
  </g>
  <g id="_x32_02">
    <g isolation="isolate">
      <text transform="translate(452.43 722.56) rotate(90)" font-family="SFPro-Heavy, &apos;SF Pro&apos;" font-size="42.96" font-variation-settings="&apos;wdth&apos; 100, &apos;opsz&apos; 28, &apos;wght&apos; 860" font-weight="800" isolation="isolate"><tspan x="0" y="0" letter-spacing="0em">2</tspan><tspan x="26.6" y="0" letter-spacing="0em">0</tspan><tspan x="55.8" y="0">2</tspan></text>
    </g>
  </g>
  <g id="_x32_03">
    <g isolation="isolate">
      <text transform="translate(526.68 722.9) rotate(90)" font-family="SFPro-Heavy, &apos;SF Pro&apos;" font-size="42.96" font-variation-settings="&apos;wdth&apos; 100, &apos;opsz&apos; 28, &apos;wght&apos; 860" font-weight="800" isolation="isolate"><tspan x="0" y="0" letter-spacing="0em">2</tspan><tspan x="26.6" y="0">03</tspan></text>
    </g>
  </g>
  <g id="_x32_04">
    <g isolation="isolate">
      <text transform="translate(602.96 721.19) rotate(90)" font-family="SFPro-Heavy, &apos;SF Pro&apos;" font-size="42.96" font-variation-settings="&apos;wdth&apos; 100, &apos;opsz&apos; 28, &apos;wght&apos; 860" font-weight="800" isolation="isolate"><tspan x="0" y="0" letter-spacing="0em">2</tspan><tspan x="26.6" y="0">04</tspan></text>
    </g>
  </g>
  <g id="_x32_05">
    <g isolation="isolate">
      <text transform="translate(675.65 721.97) rotate(90)" font-family="SFPro-Heavy, &apos;SF Pro&apos;" font-size="42.96" font-variation-settings="&apos;wdth&apos; 100, &apos;opsz&apos; 28, &apos;wght&apos; 860" font-weight="800" isolation="isolate"><tspan x="0" y="0" letter-spacing="0em">2</tspan><tspan x="26.6" y="0" letter-spacing="0em">0</tspan><tspan x="55.59" y="0">5</tspan></text>
    </g>
  </g>
  <g id="_x32_06">
    <g isolation="isolate">
      <text transform="translate(756.26 721.58) rotate(90)" font-family="SFPro-Heavy, &apos;SF Pro&apos;" font-size="42.96" font-variation-settings="&apos;wdth&apos; 100, &apos;opsz&apos; 28, &apos;wght&apos; 860" font-weight="800" isolation="isolate"><tspan x="0" y="0" letter-spacing="0em">2</tspan><tspan x="26.6" y="0">06</tspan></text>
    </g>
  </g>
  <g id="_x32_07">
    <g isolation="isolate">
      <text transform="translate(836.14 720.35) rotate(90)" font-family="SFPro-Heavy, &apos;SF Pro&apos;" font-size="42.96" font-variation-settings="&apos;wdth&apos; 100, &apos;opsz&apos; 28, &apos;wght&apos; 860" font-weight="800" isolation="isolate"><tspan x="0" y="0" letter-spacing="0em">2</tspan><tspan x="26.6" y="0" letter-spacing="-.02em">0</tspan><tspan x="55.23" y="0" letter-spacing="0em">7</tspan></text>
    </g>
  </g>
  <g id="_x32_11">
    <g isolation="isolate">
      <text transform="translate(430.68 507.24)" font-family="SFPro-Heavy, &apos;SF Pro&apos;" font-size="42.96" font-variation-settings="&apos;wdth&apos; 100, &apos;opsz&apos; 28, &apos;wght&apos; 860" font-weight="800" isolation="isolate"><tspan x="0" y="0">211</tspan></text>
    </g>
  </g>
  <g id="_x31_09">
    <g isolation="isolate">
      <text transform="translate(1023.88 282.78)" font-family="SFPro-Heavy, &apos;SF Pro&apos;" font-size="42.96" font-variation-settings="&apos;wdth&apos; 100, &apos;opsz&apos; 28, &apos;wght&apos; 860" font-weight="800" isolation="isolate"><tspan x="0" y="0">109</tspan></text>
    </g>
  </g>
  <g id="_x31_07">
    <g isolation="isolate">
      <text transform="translate(1026.1 341.8)" font-family="SFPro-Heavy, &apos;SF Pro&apos;" font-size="42.96" font-variation-settings="&apos;wdth&apos; 100, &apos;opsz&apos; 28, &apos;wght&apos; 860" font-weight="800" isolation="isolate"><tspan x="0" y="0">1</tspan><tspan x="21.46" y="0" letter-spacing="-.02em">0</tspan><tspan x="50.09" y="0">7</tspan></text>
    </g>
  </g>
  <g id="_x31_05">
    <g isolation="isolate">
      <text transform="translate(1025.83 401)" font-family="SFPro-Heavy, &apos;SF Pro&apos;" font-size="42.96" font-variation-settings="&apos;wdth&apos; 100, &apos;opsz&apos; 28, &apos;wght&apos; 860" font-weight="800" isolation="isolate"><tspan x="0" y="0">1</tspan><tspan x="21.46" y="0" letter-spacing="0em">0</tspan><tspan x="50.45" y="0">5</tspan></text>
    </g>
  </g>
  <g id="_x31_10">
    <g isolation="isolate">
      <text transform="translate(1230.84 284.82)" font-family="SFPro-Heavy, &apos;SF Pro&apos;" font-size="42.96" font-variation-settings="&apos;wdth&apos; 100, &apos;opsz&apos; 28, &apos;wght&apos; 860" font-weight="800" isolation="isolate"><tspan x="0" y="0">110</tspan></text>
    </g>
  </g>
  <g id="_x31_08">
    <g isolation="isolate">
      <text transform="translate(1227.35 343.64)" font-family="SFPro-Heavy, &apos;SF Pro&apos;" font-size="42.96" font-variation-settings="&apos;wdth&apos; 100, &apos;opsz&apos; 28, &apos;wght&apos; 860" font-weight="800" isolation="isolate"><tspan x="0" y="0">108</tspan></text>
    </g>
  </g>
  <g id="_x31_06">
    <g isolation="isolate">
      <text transform="translate(1228.06 398.69)" font-family="SFPro-Heavy, &apos;SF Pro&apos;" font-size="42.96" font-variation-settings="&apos;wdth&apos; 100, &apos;opsz&apos; 28, &apos;wght&apos; 860" font-weight="800" isolation="isolate"><tspan x="0" y="0">106</tspan></text>
    </g>
  </g>
  <g id="Rectangle_23" isolation="isolate">
    <g id="Rectangle_23-2">
      <rect x="629.84" y="274.94" width="270.92" height="349.46" fill="none" stroke="#000" stroke-miterlimit="100" stroke-width="7"/>
    </g>
  </g>
  <g id="Rectangle_24" isolation="isolate">
    <g id="Rectangle_24-2">
      <rect x="356.1" y="275.11" width="247.15" height="350.5" fill="none" stroke="#000" stroke-miterlimit="100" stroke-width="7"/>
    </g>
  </g>
  <g id="Rectangle_26" isolation="isolate">
    <g id="Rectangle_26-2">
      <rect x="354.71" y="35.95" width="547.22" height="215.53" fill="none" stroke="#000" stroke-miterlimit="100" stroke-width="7"/>
    </g>
  </g>
  <g id="Rectangle_27" isolation="isolate">
    <g id="Rectangle_27-2">
      <rect x="980.5" y="238.55" width="190.66" height="176.1" fill="none" stroke="#000" stroke-miterlimit="100" stroke-width="7"/>
    </g>
  </g>
  <g id="Rectangle_28" isolation="isolate">
    <g id="Rectangle_28-2">
      <rect x="1192.39" y="238.69" width="166.3" height="172.85" fill="none" stroke="#000" stroke-miterlimit="100" stroke-width="7"/>
    </g>
  </g>
  <g id="Rectangle_29" isolation="isolate">
    <g id="Rectangle_29-2">
      <rect x="981.07" y="34.82" width="379.73" height="179.16" fill="none" stroke="#000" stroke-miterlimit="100" stroke-width="7"/>
    </g>
  </g>
  <g id="Rectangle_30" isolation="isolate">
    <g id="Rectangle_30-2">
      <rect x="1076.11" y="437.35" width="282.63" height="162.83" fill="none" stroke="#000" stroke-miterlimit="100" stroke-width="7"/>
    </g>
  </g>
  <g id="Rectangle_31" isolation="isolate">
    <g id="Rectangle_31-2">
      <polyline points="66.55 255.39 64.59 69.73 352.93 69.73 352.93 224.19" fill="none" stroke="#000" stroke-miterlimit="100" stroke-width="7"/>
    </g>
  </g>
  <g id="Rectangle_34" isolation="isolate">
    <g id="Rectangle_34-2">
      <rect x="357.63" y="649.74" width="544.49" height="227.5" fill="none" stroke="#000" stroke-miterlimit="100" stroke-width="7"/>
    </g>
  </g>
  <g id="Rectangle_47">
    <g id="Rectangle_47-2">
      <rect x="905.68" y="834.98" width="45.7" height="42.98" fill="#bee20c"/>
    </g>
  </g>
  <g id="Rectangle_37">
    <g id="Rectangle_37-2">
      <rect x="63.12" y="720.95" width="290.98" height="156.88" fill="#f15a35"/>
      <rect x="63.12" y="720.95" width="290.98" height="156.88" fill="#f15a35"/>
    </g>
  </g>
  <g id="no__x0D_Parking">
    <g isolation="isolate">
      <text transform="translate(181.68 783.23)" fill="#fff" font-family="SFPro-Heavy, &apos;SF Pro&apos;" font-size="33.1" font-variation-settings="&apos;wdth&apos; 100, &apos;opsz&apos; 28, &apos;wght&apos; 860" font-weight="800" isolation="isolate"><tspan x="0" y="0">NO </tspan></text>
      <text transform="translate(117.14 836.04)" fill="#fff" font-family="SFPro-Heavy, &apos;SF Pro&apos;" font-size="33.1" font-variation-settings="&apos;wdth&apos; 100, &apos;opsz&apos; 28, &apos;wght&apos; 860" font-weight="800" isolation="isolate"><tspan x="0" y="0" letter-spacing="-.07em">P</tspan><tspan x="18.75" y="0" letter-spacing="0em">ARKING</tspan></text>
    </g>
  </g>
  <g id="Main_Entrance">
    <g isolation="isolate">
      <text transform="translate(755.84 907.63)" fill="#fff" font-family="SFPro-Heavy, &apos;SF Pro&apos;" font-size="30.73" font-variation-settings="&apos;wdth&apos; 100, &apos;opsz&apos; 28, &apos;wght&apos; 860" font-weight="800" isolation="isolate"><tspan x="0" y="0">MAIN ENTRANCE</tspan></text>
    </g>
  </g>
  <g id="Rectangle_44" isolation="isolate">
    <g id="Rectangle_44-2">
      <rect x="902.61" y="597.33" width="119.2" height="16.1" fill="#555"/>
      <rect x="902.61" y="597.33" width="119.2" height="16.1" fill="none" stroke="#000" stroke-miterlimit="100" stroke-width="7"/>
    </g>
  </g>
  <g id="Rectangle_43" isolation="isolate">
    <g id="Rectangle_43-2">
      <rect x="926.1" y="473.05" width="21.88" height="140.09" fill="#0237e5"/>
      <rect x="926.1" y="473.05" width="21.88" height="140.09" fill="none" stroke="#000" stroke-miterlimit="100" stroke-width="7"/>
    </g>
  </g>
  <g id="units-2">
    <rect id="unit_x5F_115" x="1282.83" y="38.26" width="74.4" height="172.27" fill="none"/>
    <rect id="unit_x5F_114" x="1208.33" y="38.26" width="74.4" height="172.27" fill="none"/>
    <rect id="unit_x5F_113" x="1133.82" y="38.26" width="74.4" height="172.27" fill="none"/>
    <rect id="unit_x5F_112" x="1059.31" y="38.26" width="74.4" height="172.27" fill="none"/>
    <rect id="unit_x5F_111" x="984.8" y="38.26" width="74.4" height="172.27" fill="none"/>
    <rect id="unit_x5F_107" x="984.08" y="298.55" width="184.38" height="56.49" fill="none"/>
    <rect id="unit_x5F_105" x="984.08" y="355.18" width="184.38" height="56.49" fill="none"/>
    <rect id="unit_x5F_109" x="984.08" y="241.51" width="184.38" height="56.49" fill="none"/>
    <rect id="unit_x5F_108" x="1196.21" y="297.69" width="158.78" height="54.93" fill="none"/>
    <rect id="unit_x5F_106" x="1196.21" y="352.74" width="158.78" height="54.93" fill="none"/>
    <rect id="unit_x5F_110" x="1196.21" y="242.23" width="158.78" height="54.93" fill="none"/>
    <rect id="unit_x5F_101" x="1078.79" y="440.96" width="69" height="155.52" fill="none"/>
    <rect id="unit_x5F_102" x="1147.79" y="440.96" width="69" height="155.52" fill="none"/>
    <rect id="unit_x5F_103" x="1216.79" y="440.96" width="69" height="155.52" fill="none"/>
    <rect id="unit_x5F_104" x="1285.79" y="440.96" width="69" height="155.52" fill="none"/>
    <rect id="unit_x5F_214" x="633.38" y="278.47" width="263.74" height="85.65" fill="none"/>
    <rect id="unit_x5F_212" x="633.38" y="364.12" width="263.74" height="85.65" fill="none"/>
    <rect id="unit_x5F_210" x="633.38" y="449.77" width="263.74" height="85.65" fill="none"/>
    <rect id="unit_x5F_208" x="633.38" y="535.43" width="263.74" height="85.65" fill="none"/>
    <rect id="unit_x5F_215" x="359.48" y="278.18" width="240.21" height="85.65" fill="none"/>
    <rect id="unit_x5F_213" x="359.48" y="363.83" width="240.21" height="85.65" fill="none"/>
    <rect id="unit_x5F_211" x="359.48" y="449.49" width="240.21" height="85.65" fill="none"/>
    <rect id="unit_x5F_209" x="359.48" y="535.14" width="240.21" height="85.65" fill="none"/>
    <rect id="unit_x5F_201" x="361.18" y="653.07" width="76.77" height="220.54" fill="none"/>
    <rect id="unit_x5F_202" x="437.95" y="653.07" width="76.77" height="220.54" fill="none"/>
    <rect id="unit_x5F_203" x="514.73" y="653.07" width="76.77" height="220.54" fill="none"/>
    <rect id="unit_x5F_204" x="591.5" y="653.07" width="76.77" height="220.54" fill="none"/>
    <rect id="unit_x5F_205" x="668.28" y="653.07" width="76.77" height="220.54" fill="none"/>
    <rect id="unit_x5F_206" x="745.05" y="653.07" width="76.77" height="220.54" fill="none"/>
    <rect id="unit_x5F_207" x="821.82" y="653.07" width="76.77" height="220.54" fill="none"/>
    <rect id="unit_x5F_216" x="358.21" y="39.52" width="77.18" height="208.46" fill="none"/>
    <rect id="unit_x5F_217" x="435.39" y="39.52" width="77.18" height="208.46" fill="none"/>
    <rect id="unit_x5F_218" x="512.56" y="39.52" width="77.18" height="208.46" fill="none"/>
    <rect id="unit_x5F_219" x="589.74" y="39.52" width="77.18" height="208.46" fill="none"/>
    <rect id="unit_x5F_220" x="666.92" y="39.52" width="77.18" height="208.46" fill="none"/>
    <rect id="unit_x5F_221" x="744.09" y="39.52" width="77.18" height="208.46" fill="none"/>
    <rect id="unit_x5F_222" x="821.27" y="39.52" width="77.18" height="208.46" fill="none"/>
    <rect id="unit_x5F_306305" x="70.04" y="258.95" width="226.6" height="140.77" fill="none"/>
    <rect id="unit_x5F_304" x="70.04" y="399.98" width="226.6" height="78.7" fill="none"/>
    <rect id="unit_x5F_303" x="70.04" y="478.95" width="226.6" height="78.7" fill="none"/>
    <rect id="unit_x5F_302" x="70.04" y="557.91" width="226.6" height="78.7" fill="none"/>
    <rect id="unit_x5F_301" x="70.04" y="636.88" width="226.6" height="77.08" fill="none"/>
    <rect id="unit_x5F_309" x="255.63" y="73.41" width="93.9" height="147.23" fill="none"/>
    <rect id="unit_x5F_308" x="169.99" y="73.53" width="85.72" height="147.23" fill="none"/>
    <rect id="unit_x5F_307" x="67.99" y="73.66" width="102" height="173.57" fill="none"/>
  </g>
  <rect x="1279.92" y="414.63" width="82.3" height="19.51"/>
  <text transform="translate(962.7 520.15)" font-family="SFPro-Heavy, &apos;SF Pro&apos;" font-size="23.88" font-variation-settings="&apos;wdth&apos; 100, &apos;opsz&apos; 28, &apos;wght&apos; 860" font-weight="800"><tspan x="0" y="0">PICNIC</tspan><tspan x="0" y="28.65" letter-spacing="-.09em">T</tspan><tspan x="12.38" y="28.65">ABLES</tspan></text>
  <g id="Generative_Object">
    <g>
      <path d="M929.62,130.58c.39-.08,4.12-.12,4.4-.06,2.67.59,3.25,6.05,4.79,8.05,3.04,3.27,15.08,14.54,16.48,16.53,1.06,1.51.8,4.85.76,6.74.19,0,.37-.05.56-.09,4.73-1.16,3.9-3.74,6-3.97,1.88-.2,3.47,2.2,1.11,5.36-1.94,2.61-4.38,3.09-7.42,2.75-.14-.02-.3.03-.53-.14-.82,1.95-2.65,3.4-4.73,3.7-.46.07-8.92.11-9.37,0-1.5-.37-1.97-2.09-.77-3.1.84-.71,3.39-.55,4.49-.54l.08-.11c-2.73-.82-4.68-2.64-5.39-5.43-1.55.68-1.7-1.77-3.19-1.34-.34,2.17.79,8.97-.86,10.2-.36.27-6.74,1.34-6.41-1.49.29-2.47,3.45-1.36,3.63-1.93l-.13-12.03c-.49-1.08-1.33-.94-2.72-2.58-3.5-4.15-2.48-8.74-2.6-9.28-.64-2.76-5.47.18-7-4.21-1.6-4.58,3.88-3.11,4.71-3.56,1.37-1.19,1.42-2.91,4.11-3.46Z" fill="#fff"/>
      <path d="M928.62,133.39c1.51-.49,1.46,2.28.1,1.91-.54-.15-.65-1.73-.1-1.91Z" fill="#fff"/>
    </g>
    <g>
      <g>
        <path d="M946.17,165.82c-.23,0-.47-.05-.69-.11-2.73-.82-4.68-2.64-5.39-5.43-.96-3.77,1.54-6.15,5.22-6.22" fill="#fff"/>
        <path d="M946.14,166.53c-7.8-.97-10.27-12.94-.85-13.2.52-.01,1.52-.09,1.7.49.26.94-.97.91-1.67.95-6.48.04-5.71,7.45-1,9.71.65.32,1.41.6,1.96.63.94.08.81,1.52-.13,1.43h0Z" fill="#36455b"/>
      </g>
      <path d="M936.89,154.53v4.4c-.34,2.17.79,8.97-.86,10.2-.36.27-6.74,1.34-6.41-1.49.29-2.47,3.45-1.36,3.63-1.93l-.13-12.03c-.49-1.08-1.33-.94-2.72-2.58-3.5-4.15-2.48-8.74-2.6-9.28-.64-2.76-5.47.18-7-4.21-1.6-4.58,3.88-3.11,4.71-3.56,1.37-1.19,1.42-2.91,4.11-3.46.39-.08,4.12-.12,4.4-.06,2.67.59,3.25,6.05,4.79,8.05,3.04,3.27,15.08,14.54,16.48,16.53,1.06,1.51.8,4.85.76,6.74-.03,1.3.25,2.67-.28,3.91-.82,1.95-2.65,3.4-4.73,3.7-.46.07-8.92.11-9.37,0-1.5-.37-1.97-2.09-.77-3.1.84-.71,3.39-.55,4.49-.54.7,0,1.4.01,2.11,0" fill="#fff" stroke="#36455b" stroke-linecap="round" stroke-linejoin="round" stroke-width="1.43"/>
      <path d="M956.31,165.89c3.04.34,5.48-.14,7.42-2.75,2.36-3.16.77-5.55-1.11-5.36-2.11.22-1.28,2.8-6,3.97" fill="#fff" stroke="#36455b" stroke-linecap="round" stroke-linejoin="round" stroke-width="1.43"/>
      <path d="M938.49,139.02c-1.39,3.34-5.1,2.84-5.94.12-.22-.71-.12-3.03-.15-4.02" fill="#fff" stroke="#36455b" stroke-linecap="round" stroke-linejoin="round" stroke-width="1.43"/>
    </g>
  </g>
</svg>